<svg xmlns="http://www.w3.org/2000/svg" viewBox="0 0 900 720" role="img" aria-labelledby="title desc">
  <title id="title">Gift campaign workflow</title>
  <desc id="desc">Stylized gift box, campaign cards, and an automation path.</desc>
  <rect width="900" height="720" rx="42" fill="#f8f7f2"/>
  <circle cx="690" cy="150" r="112" fill="#ff9f2f" opacity="0.9"/>
  <circle cx="164" cy="562" r="142" fill="#dce6ff"/>
  <path d="M188 476 C310 306 508 414 620 244 C654 193 714 166 772 164" fill="none" stroke="#0d0d0d" stroke-width="10" stroke-linecap="round" stroke-dasharray="2 24"/>
  <g transform="translate(112 104)">
    <rect x="0" y="0" width="308" height="172" rx="26" fill="#fff" stroke="#0d0d0d" stroke-width="6"/>
    <rect x="34" y="34" width="138" height="18" rx="9" fill="#0d0d0d"/>
    <rect x="34" y="72" width="238" height="14" rx="7" fill="#dedbd2"/>
    <rect x="34" y="104" width="184" height="14" rx="7" fill="#dedbd2"/>
    <circle cx="250" cy="132" r="20" fill="#ff6b57"/>
  </g>
  <g transform="translate(490 330) rotate(-5)">
    <rect x="0" y="0" width="278" height="214" rx="34" fill="#fff" stroke="#0d0d0d" stroke-width="7"/>
    <rect x="44" y="82" width="190" height="96" rx="18" fill="#ff9f2f" stroke="#0d0d0d" stroke-width="6"/>
    <path d="M139 82 v96" stroke="#0d0d0d" stroke-width="6"/>
    <path d="M44 124 h190" stroke="#0d0d0d" stroke-width="6"/>
    <path d="M104 82 c-42-42-2-84 35-22 c38-62 78-20 36 22" fill="none" stroke="#0d0d0d" stroke-width="7" stroke-linecap="round"/>
    <rect x="42" y="32" width="124" height="14" rx="7" fill="#0d0d0d"/>
  </g>
  <g transform="translate(160 360) rotate(6)">
    <rect x="0" y="0" width="308" height="186" rx="28" fill="#0d0d0d"/>
    <rect x="30" y="32" width="112" height="16" rx="8" fill="#ff9f2f"/>
    <rect x="30" y="76" width="240" height="13" rx="7" fill="#fff" opacity="0.72"/>
    <rect x="30" y="108" width="198" height="13" rx="7" fill="#fff" opacity="0.72"/>
    <rect x="30" y="140" width="156" height="13" rx="7" fill="#fff" opacity="0.72"/>
  </g>
  <g transform="translate(604 96)">
    <rect x="0" y="0" width="138" height="44" rx="22" fill="#fff" stroke="#0d0d0d" stroke-width="5"/>
    <circle cx="30" cy="22" r="10" fill="#1f9d68"/>
    <rect x="52" y="16" width="54" height="12" rx="6" fill="#0d0d0d"/>
  </g>
</svg>
